<svg width="683" height="684" viewBox="0 0 683 684" fill="none" xmlns="http://www.w3.org/2000/svg">
<path d="M310.267 1.96673C266.933 6.10006 228.533 17.1667 189.467 36.6334C154.8 53.8334 129.467 72.1001 100.8 100.233C73.4667 127.3 53.7333 154.633 36.1333 189.967C-5.60002 273.7 -11.2 368.633 20.1333 457.167C31.8667 489.967 55.2 531.3 76.5333 557.167C108.667 595.833 145.6 625.167 189.467 647.033C241.467 672.9 296.8 685.033 353.333 682.767C404.133 680.633 448.267 669.433 493.2 647.033C547.333 620.233 592.267 580.5 626 529.833C637.6 512.367 654.933 478.233 662 458.633C685.333 394.9 688.667 321.567 671.333 255.567C664.8 230.767 659.067 215.567 646.667 190.5C629.333 155.433 611.067 129.967 582.933 101.3C512.133 29.5667 410 -7.63327 310.267 1.96673ZM223.6 164.5C227.867 166.1 292.533 229.967 295.467 235.433C300 244.1 299.067 245.7 274.8 270.367C262.533 282.9 251.333 295.167 250.133 297.433C245.067 307.433 246.133 319.3 252.933 329.567C275.2 362.633 333.867 419.3 360.933 433.833C367.067 437.167 379.2 437.433 386.4 434.5C389.467 433.167 399.867 423.967 413.333 410.5C435.6 388.367 439.067 385.967 446.4 387.833C450.933 388.9 516.4 453.7 519.467 460.233C523.467 468.767 518.933 475.967 497.733 494.5C475.067 514.367 449.867 522.767 424 519.167C389.2 514.367 332 486.1 290.667 453.033C275.2 440.633 237.333 402.633 225.067 387.167C197.333 352.367 173.333 307.967 164.533 275.833C158.933 255.167 161.333 233.567 171.6 212.5C177.2 201.167 179.467 198.1 195.067 182.233C204.533 172.5 213.6 164.367 215.2 164.1C216.667 163.833 218.4 163.433 218.933 163.3C219.467 163.3 221.467 163.833 223.6 164.5Z" fill="#800D0D"/>
</svg>
