<svg width="684" height="683" viewBox="0 0 684 683" fill="none" xmlns="http://www.w3.org/2000/svg">
<path d="M313.167 11.6C202.767 21.2 105.433 84.5333 51.5666 182C7.96664 260.8 -1.23336 357.6 26.6333 445.6C42.7666 496.267 69.8333 540.267 109.167 579.467C148.1 618.133 193.967 645.067 247.167 660.533C262.5 664.933 286.9 670.533 290.9 670.667C292.1 670.667 292.5 646 292.5 552V433.333H255.167H217.833V386.667V340H255.033H292.233L292.9 292.933C293.567 241.867 294.5 233.467 302.367 212.667C316.1 176.4 345.967 152.267 388.767 143.067C403.567 139.867 445.3 139.867 472.5 143.2C483.167 144.4 493.167 145.867 494.9 146.267L497.833 146.933V187.333V227.733L461.567 228.267C428.9 228.8 424.233 229.2 416.5 231.733C401.967 236.533 392.767 246.533 387.967 262.533C386.233 268.4 385.833 276.533 385.833 304.933V340H434.5C482.767 340 483.167 340 483.167 342.8C483.167 344.267 480.233 364.667 476.5 388C472.9 411.333 469.833 431.2 469.833 431.867C469.833 432.933 459.3 433.333 437.167 433.333H404.5V552C404.5 649.867 404.767 670.667 406.233 670.667C407.3 670.667 415.567 668.667 424.767 666.133C477.433 651.6 526.9 623.333 567.033 584.667C623.567 530.267 657.033 464.267 668.1 385.333C671.433 360.667 671.167 318.667 667.3 293.6C656.367 221.467 624.9 159.067 573.833 107.867C519.167 53.0667 454.367 21.6 377.833 12.8C361.7 10.9333 328.1 10.2667 313.167 11.6Z" fill="#800D0D"/>
</svg>
