<svg width="684" height="683" viewBox="0 0 684 683" fill="none" xmlns="http://www.w3.org/2000/svg">
<path d="M311.833 42.8C279.3 45.8667 241.567 56.8 210.5 71.8667C149.7 101.6 102.233 149.067 72.3667 210C-0.299998 358.4 61.7 538.133 210.5 610.8C359.3 683.333 538.767 621.6 611.167 472.667C616.233 462.4 622.233 448.533 624.5 442C663.033 331.467 635.3 210.267 552.767 128.267C489.7 65.6 401.567 34.4 311.833 42.8ZM423.433 176.533C464.1 184.533 494.1 212.133 505.433 252.133C507.7 260 507.833 267.2 507.833 341.333C507.833 415.467 507.7 422.667 505.433 430.533C495.033 467.2 468.5 493.867 431.833 504.8C424.633 506.933 415.833 507.2 347.967 507.6C267.7 508.133 260.633 507.733 244.1 502C216.5 492.4 191.167 467.467 181.833 440.667C175.567 422.8 175.167 417.467 175.167 341.333C175.167 263.867 175.567 259.067 182.367 240.8C194.633 208.133 223.967 183.6 259.167 176.667C272.367 174 409.967 174 423.433 176.533Z" fill="#800D0D"/>
<path d="M262.233 214C238.367 220.4 220.767 238.4 214.5 262.267C212.9 268.533 212.5 282.267 212.5 340.933C212.5 387.467 213.033 414.267 213.967 418.933C219.033 443.333 239.833 464.133 264.5 469.333C269.7 470.4 293.167 470.8 346.5 470.4L421.167 470L429.967 466.267C446.9 459.067 461.833 443.6 467.833 426.667C470.367 419.733 470.5 415.067 470.9 346C471.167 295.067 470.9 270.267 469.833 264.667C465.167 240.267 446.1 220.4 421.167 214C409.967 211.2 272.9 211.2 262.233 214ZM440.767 241.2C444.5 244.533 445.167 246 445.167 251.333C445.167 256.667 444.5 258.133 440.767 261.467C432.633 268.667 421.167 265.6 417.833 255.2C413.3 241.6 429.967 231.467 440.767 241.2ZM358.767 258.133C389.167 264.4 413.033 285.733 422.767 315.333C425.7 324.4 426.367 328.4 426.367 341.333C426.367 354.4 425.7 358.267 422.767 367.467C414.233 393.333 393.833 413.733 367.967 422.267C353.033 427.2 332.367 427.467 317.833 422.933C256.5 403.867 236.5 328.667 280.5 282.667C301.167 261.2 329.967 252.133 358.767 258.133Z" fill="#800D0D"/>
<path d="M328.767 291.333C291.033 302 277.7 347.867 304.233 376.267C319.3 392.4 340.1 397.067 361.3 389.2C372.233 385.067 385.567 371.867 389.833 360.667C394.233 349.467 394.233 333.2 389.833 322C385.433 310.8 372.233 297.6 361.167 293.467C350.9 289.6 337.967 288.8 328.767 291.333Z" fill="#800D0D"/>
</svg>
