<svg width="682" height="682" viewBox="0 0 682 682" fill="none" xmlns="http://www.w3.org/2000/svg">
<path d="M308.667 0.966501C202 12.0332 108.533 70.0332 51.7334 160.433C-28.8 288.567 -13.6 458.7 88.2667 569.5C144.933 631.1 215.067 667.767 299.333 679.767C315.2 682.033 367.6 681.9 384 679.633C466.933 668.167 537.067 631.633 593.6 570.3C640.133 519.9 669.867 455.5 680.267 382.833C682.533 367.1 682.533 314.567 680.267 298.833C672.4 243.367 654.8 196.3 625.6 152.3C613.333 133.633 600.933 118.433 583.6 100.967C530.4 47.0998 464.533 13.8998 388.667 2.69983C372.267 0.299834 324.933 -0.766832 308.667 0.966501ZM376.667 128.7C392.533 133.1 414.8 144.433 428 155.1C443.2 167.367 455.867 183.233 464.667 201.5C474.4 221.233 477.467 233.367 478.267 254.833C478.933 269.767 478.533 273.9 476.133 283.633C466 324.3 434.267 379.233 377.467 454.833C357.067 482.033 342.533 500.167 341.333 500.167C340.667 500.167 333.333 491.5 325.067 480.833C262.667 400.433 225.6 340.567 209.6 294.567C204.8 280.3 204.667 279.9 204.667 259.5C204.667 234.433 207.067 223.633 218 201.5C236.8 162.967 272.133 135.633 314.667 126.7C328.133 123.9 363.067 125.1 376.667 128.7ZM268.533 451.5L277.2 463.367L272.267 464.3C237.467 470.167 206.267 482.033 200.133 491.767C193.6 502.167 231.6 518.7 277.467 525.367C347.2 535.633 433.6 527.233 470.267 506.7C477.6 502.567 484 496.833 484 494.167C484 492.433 476.8 486.033 471.067 482.567C462.133 477.367 441.333 470.433 423.733 466.833C414.933 465.1 407.467 463.367 407.067 462.967C406.667 462.7 410.4 456.967 415.2 450.433L424 438.433L437.467 441.633C475.067 450.567 500.667 464.833 508 481.1C511.733 489.367 511.467 500.567 507.467 508.7C492.533 538.033 427.867 556.833 341.6 556.833C308.933 556.833 291.2 555.5 266.4 551.367C216.933 543.1 185.2 528.167 175.2 508.567C171.2 500.567 170.933 489.367 174.667 481.1C180 469.367 198.4 456.167 220 448.833C230.8 445.1 257.733 438.3 258.933 438.967C259.333 439.233 263.733 444.833 268.533 451.5Z" fill="#800D0D"/>
<path d="M320.667 178.967C305.733 182.567 293.733 189.633 281.2 202.033C263.733 219.633 256 237.9 256 262.167C256 286.433 263.733 304.567 281.333 322.167C298.8 339.767 317.2 347.5 341.333 347.5C365.6 347.5 383.733 339.767 401.333 322.167C418.933 304.567 426.667 286.433 426.667 262.167C426.667 237.9 418.933 219.767 401.333 202.167C388.667 189.5 376.8 182.567 361.333 178.967C350.533 176.433 331.333 176.433 320.667 178.967Z" fill="#800D0D"/>
</svg>
