<svg width="684" height="683" viewBox="0 0 684 683" fill="none" xmlns="http://www.w3.org/2000/svg">
<path d="M317.167 8.80002C315.033 9.06668 307.433 10 300.5 10.8C242.5 17.3334 184.633 41.6 135.167 79.8667C120.5 91.2 91.5667 120.133 80.2333 134.8C43.3 182.533 20.9 234.933 11.5667 295.6C8.5 315.6 8.5 367.067 11.5667 387.067C26.5 484 77.3 564.933 156.5 618C200.5 647.467 245.7 664.4 301.167 672.267C319.167 674.8 368.233 674.4 387.833 671.6C437.567 664.267 485.3 646 525.833 618.933C608.1 563.867 658.633 482.267 672.767 382C675.033 366.133 674.9 316.267 672.633 300C660.9 215.333 620.1 140.133 557.167 87.0667C509.567 46.8 450.233 20.1334 388.5 11.3334C374.1 9.20002 326.233 7.46668 317.167 8.80002ZM357.833 189.867C431.967 198.133 494.633 215.333 546.5 241.733C556.367 246.8 564.5 252 568.1 255.467C580.5 268 580.367 288.267 567.567 300.267C562.1 305.467 555.033 308 546.1 308C539.033 308 536.367 307.067 519.967 298.667C452.633 264.667 365.033 247.467 270.5 249.733C227.3 250.8 193.033 255.067 159.833 263.467C129.833 271.067 113.433 265.6 107.7 246C102.5 227.6 112.5 211.467 132.9 205.6C162.233 196.933 201.3 190.533 243.167 187.467C261.033 186.267 339.3 187.867 357.833 189.867ZM331.433 302.133C391.833 308.267 445.833 324 495.433 349.6C517.3 360.933 522.5 364.933 526.633 373.867C530.367 382 530.633 389.467 527.3 396.667C522.633 406.8 515.967 410.667 503.033 410.667C496.233 410.667 493.567 409.867 482.767 404.133C434.5 378.8 376.5 361.867 317.167 356C295.833 353.733 251.033 354.133 229.833 356.533C211.3 358.8 191.167 362.4 173.967 366.8C159.967 370.4 147.433 370.133 141.7 366.267C125.3 355.2 126.767 328.933 144.233 320.133C154.9 314.8 199.3 305.467 230.233 302.133C253.567 299.467 306.633 299.6 331.433 302.133ZM347.833 412C391.433 418.667 424.1 428.533 459.833 446C486.233 458.8 491.167 463.6 491.167 476.933C491.167 489.333 482.5 496.8 469.3 495.733C464.233 495.333 457.967 492.8 444.767 486.133C405.833 466.4 366.767 455.2 322.633 450.8C304.1 448.933 261.833 448.933 241.833 450.667C224.767 452.267 191.167 457.467 177.833 460.533C154.367 466.133 142.233 461.067 139.567 444.667C138.633 438.667 143.033 429.6 148.9 425.6C153.967 422.133 174.767 417.733 206.5 413.333C239.7 408.8 250.1 408.133 290.5 408.667C321.833 408.933 332.767 409.6 347.833 412Z" fill="#800D0D"/>
</svg>
