<svg width="684" height="683" viewBox="0 0 684 683" fill="none" xmlns="http://www.w3.org/2000/svg">
<g clip-path="url(#clip0_4_13)">
<path d="M10.5 3.59998C11.8333 5.73332 70.2333 90.6667 140.233 192.667C210.233 294.667 267.567 378.667 267.567 379.333C267.567 380.133 210.1 447.6 139.7 529.467C69.4333 611.2 11.0333 679.2 9.96666 680.4C8.23332 682.533 10.1 682.667 37.4333 682.667H66.7667L179.967 551.067C242.233 478.8 293.833 419.333 294.5 419.2C295.3 418.933 336.633 478.133 386.367 550.667L476.9 682.667H576.1C670.1 682.667 675.167 682.533 673.967 680.267C673.3 679.067 612.633 590.667 539.3 484C465.967 377.333 405.833 289.733 405.833 289.333C405.833 288.8 461.567 223.733 529.7 144.667L653.433 0.666651L624.767 0.266651C601.167 -1.52588e-05 595.7 0.266651 593.967 1.86665C592.767 2.93332 544.1 59.3333 485.833 127.067C427.567 194.933 379.433 250.133 378.9 249.867C378.367 249.467 339.433 193.2 292.367 124.667L206.767 -1.52588e-05H107.433H8.23332L10.5 3.59998ZM385.833 340.8C499.833 504 593.433 638 593.567 638.8C593.967 639.6 577.833 639.867 549.033 639.733L503.967 639.333L296.233 342.267C181.967 178.8 88.5 44.8 88.5 44.5333C88.5 44.2667 108.767 44 133.567 44L178.5 44.1333L385.833 340.8Z" fill="#800D0D"/>
</g>
<defs>
<clipPath id="clip0_4_13">
<rect width="682.667" height="682.667" fill="white" transform="translate(0.5)"/>
</clipPath>
</defs>
</svg>
