<svg width="684" height="683" viewBox="0 0 684 683" fill="none" xmlns="http://www.w3.org/2000/svg">
<path d="M309.967 1.33336C194.233 12.5334 90.7667 82.6667 38.3667 185.6C19.8333 222 8.90001 257.067 2.90001 299.333C0.233349 318 0.633349 366.533 3.70001 387.333C8.90001 424.4 19.8333 459.467 36.6333 493.2C69.8333 560.133 122.9 613.2 189.967 646.533C298.633 700.667 427.167 693.2 528.5 626.933C568.1 601.067 605.7 562.667 631.3 521.867C641.167 506.4 655.833 476.267 662.5 458.133C669.3 439.733 677.167 408 679.967 387.333C683.033 366.4 683.433 317.867 680.767 299.333C672.9 244 655.3 196.8 626.1 152.8C613.833 134.133 601.433 118.933 584.1 101.467C530.9 47.7334 464.767 14.4 389.167 3.20003C372.9 0.800027 327.033 -0.266639 309.967 1.33336ZM368.5 129.867C395.033 133.467 415.033 139.733 439.3 152.267C540.9 204.4 582.367 330.267 531.567 432.667C510.767 474.533 479.167 506.667 437.7 527.867C381.967 556.267 316.367 558.533 258.233 533.867L247.3 529.2L193.567 541.867C163.967 548.933 139.033 554.667 137.967 554.667C134.767 554.667 131.167 550.533 131.167 546.8C131.167 544.933 136.1 519.333 142.1 490.133C152.9 437.6 152.9 436.8 150.9 431.467C149.7 428.4 146.5 420.267 143.833 413.333C127.033 370.267 126.1 319.067 141.167 272.667C146.233 257.333 159.3 231.467 168.9 217.733C179.167 203.067 204.367 177.867 218.767 167.6C262.1 136.933 317.033 123.067 368.5 129.867Z" fill="#800D0D"/>
<path d="M331.833 174.267C306.9 176.267 287.167 181.867 265.833 192.8C193.833 229.733 159.433 313.467 184.5 391.067C186.633 397.733 191.433 409.067 195.033 416.267L201.433 429.067L194.9 460.8C191.3 478.267 188.633 493.2 188.767 494.133C189.033 495.067 199.433 493.2 221.167 488L253.167 480.4L265.833 486.667C321.967 514.533 384.5 510.667 435.7 476C495.833 435.6 522.1 356.933 498.9 287.333C482.367 237.733 442.367 198 393.167 182.267C378.9 177.733 371.567 176.267 356.5 174.667C343.967 173.333 342.233 173.333 331.833 174.267ZM278.5 239.2C283.567 241.333 284.767 243.467 296.633 270.267C300.9 280.267 304.5 290.267 304.5 292.8C304.5 296 302.633 299.6 297.167 306.8C288.233 318.533 287.7 322.8 293.967 332.8C299.033 340.933 323.167 364.8 336.5 374.933C357.3 390.8 366.5 394.533 374.233 390.533C375.833 389.6 380.9 385.467 385.433 381.2C392.1 374.8 394.367 373.333 398.1 373.333C400.5 373.333 412.767 376.4 425.167 380C444.5 385.6 448.367 387.067 451.567 390.667C454.1 393.6 455.167 396.133 455.167 399.867C455.167 410.8 435.567 433.067 420.9 438.8C410.633 442.8 387.167 443.2 373.167 439.467C339.433 430.533 298.767 402 269.033 366.267C245.433 338.133 235.967 316.267 235.833 290.667C235.833 277.467 236.1 276.133 240.233 267.6C243.167 261.733 247.967 255.333 253.967 249.2C265.967 237.067 269.7 235.6 278.5 239.2Z" fill="#800D0D"/>
</svg>
