<svg width="684" height="683" viewBox="0 0 684 683" fill="none" xmlns="http://www.w3.org/2000/svg">
<g clip-path="url(#clip0_4_19)">
<path d="M309.967 1.33335C194.233 12.5334 90.7667 82.6667 38.3667 185.6C19.8333 222 8.89999 257.067 2.89999 299.333C0.233326 318 0.633326 366.533 3.69999 387.333C8.89999 424.4 19.8333 459.467 36.6333 493.2C69.8333 560.133 122.9 613.2 189.967 646.533C298.633 700.667 427.167 693.2 528.5 626.933C568.1 601.067 605.7 562.667 631.3 521.867C641.167 506.4 655.833 476.267 662.5 458.133C669.3 439.733 677.167 408 679.967 387.333C683.033 366.4 683.433 317.867 680.767 299.333C672.9 244 655.3 196.8 626.1 152.8C613.833 134.133 601.433 118.933 584.1 101.467C530.9 47.7334 464.767 14.4 389.167 3.20002C372.9 0.800017 327.033 -0.266649 309.967 1.33335ZM471.3 215.467C496.233 222.8 514.633 242.4 519.833 267.333C522.633 280.933 522.633 401.733 519.833 415.333C514.633 440.267 496.1 459.867 471.3 467.2C464.9 469.067 449.833 469.333 341.833 469.333C233.833 469.333 218.767 469.067 212.367 467.2C187.433 459.867 169.033 440.267 163.833 415.333C161.033 401.733 161.033 280.933 163.833 267.333C169.033 242.933 185.433 224.667 209.833 216.4L218.5 213.467L341.3 213.333C449.833 213.333 464.9 213.6 471.3 215.467Z" fill="#800D0D"/>
<path d="M293.833 341.2C293.833 371.333 294.1 396 294.5 396C295.833 396 388.5 342 388.5 341.333C388.367 340.667 297.7 287.733 295.167 286.933C294.233 286.667 293.833 305.867 293.833 341.2Z" fill="#800D0D"/>
</g>
<defs>
<clipPath id="clip0_4_19">
<rect width="682.667" height="682.667" fill="white" transform="translate(0.5)"/>
</clipPath>
</defs>
</svg>
