<svg width="900" height="900" viewBox="0 0 900 900" fill="none" xmlns="http://www.w3.org/2000/svg">
<g clip-path="url(#clip0_5_2)">
<path d="M0 0C297 0 594 0 900 0C900 297 900 594 900 900C603 900 306 900 0 900C0 603 0 306 0 0Z" fill="black"/>
<path d="M528.188 308.687C529.374 308.692 530.56 308.696 531.782 308.7C540.869 308.817 549.216 309.635 558 312C559.024 312.267 560.047 312.533 561.102 312.808C580.338 318.518 597.765 331.185 610 347C611.297 349.851 611.297 349.851 612 352C611.394 352.401 610.789 352.802 610.164 353.215C588.697 367.779 573.238 388.315 568.242 413.985C563.897 438.221 568.597 463.242 582 484C591.124 496.751 602.467 506.214 616 514C616.787 514.457 617.573 514.915 618.383 515.387C619.915 516.27 621.456 517.138 623 518C613.684 553.113 592.71 585.708 568 612C567.144 612.953 567.144 612.953 566.27 613.926C557.259 623.579 544.503 630.637 531.2 631.375C521.206 631.609 511.856 630.973 502.625 626.812C476.481 615.564 452.691 610.339 425.261 621.072C421.643 622.603 418.059 624.203 414.479 625.822C400.341 632.119 385.769 634.434 371 629C361.78 625.105 355.046 618.89 348 612C347.229 611.291 346.459 610.582 345.664 609.851C338.433 603.038 332.723 595.077 327 587C326.154 585.808 326.154 585.808 325.291 584.591C313.209 567.405 303.064 549.274 295.442 529.676C294.22 526.56 292.886 523.544 291.5 520.5C282.477 498.79 276.955 473.433 276.762 449.894C276.754 448.934 276.746 447.975 276.738 446.986C276.724 444.956 276.713 442.926 276.705 440.897C276.694 438.864 276.673 436.831 276.644 434.798C276.169 402.333 284.278 372.434 305 347C305.613 346.223 306.225 345.445 306.856 344.644C322.282 326.061 347.115 312.686 371 310C374.626 309.839 378.246 309.815 381.875 309.812C383.289 309.794 383.289 309.794 384.731 309.775C399.585 309.744 413.659 315.196 427.313 320.625C448.971 329.184 462.502 326.52 483.615 317.937C498.317 311.993 512.252 308.61 528.188 308.687Z" fill="#FEFEFE"/>
<path d="M535 206C536.024 231.914 529.256 253.608 513 274C512.354 274.829 511.708 275.658 511.043 276.512C498.625 291.492 480.096 301.72 461 305C456.969 305.304 453.023 305.437 449 305C447.246 303.247 447.785 300.886 447.75 298.5C448.012 274.494 457.263 254.047 473 236C473.567 235.338 474.134 234.675 474.718 233.992C489.298 218.198 513.23 205.403 535 206Z" fill="#FBFBFB"/>
</g>
<defs>
<clipPath id="clip0_5_2">
<rect width="900" height="900" fill="white"/>
</clipPath>
</defs>
</svg>
