<svg width="700" height="700" viewBox="0 0 700 700" fill="none" xmlns="http://www.w3.org/2000/svg">
<g clip-path="url(#clip0_5_9592)">
<path d="M0 0C231 0 462 0 700 0C700 231 700 462 700 700C469 700 238 700 0 700C0 469 0 238 0 0Z" fill="#FEFEFE"/>
<path d="M346.309 120.906C403.675 119.411 459.875 136.131 503.062 175.312C503.796 176.01 504.529 176.707 505.285 177.426C506.927 179.078 506.927 179.078 509 180C507.352 184.196 504.269 187.033 501.145 190.161C500.546 190.768 499.948 191.375 499.331 192C497.354 194.002 495.369 195.995 493.383 197.988C492.005 199.375 490.627 200.762 489.25 202.148C486.363 205.051 483.473 207.95 480.579 210.846C476.866 214.565 473.169 218.299 469.476 222.038C466.638 224.906 463.789 227.762 460.937 230.615C459.568 231.988 458.204 233.365 456.844 234.746C454.945 236.671 453.032 238.58 451.114 240.485C450.27 241.351 450.27 241.351 449.41 242.234C447.821 243.793 447.821 243.793 445 246C441.341 245.904 439.714 244.011 437.187 241.5C431.101 235.914 424.176 232.006 417 228C415.998 227.43 414.997 226.86 413.965 226.273C406.261 222.141 398.263 219.81 389.873 217.533C388.182 217.052 386.513 216.495 384.848 215.93C359.665 207.708 331.205 213.104 307.19 222.177C305.379 222.857 303.556 223.505 301.73 224.144C286.103 229.98 272.658 240.29 261 252C260.353 252.599 259.706 253.199 259.039 253.816C232.672 278.512 220.756 315.596 219.557 350.832C219.517 352.084 219.478 353.335 219.437 354.625C219.373 356.56 219.373 356.56 219.307 358.535C219.201 361.69 219.099 364.845 219 368C219.66 368 220.32 368 221 368C221.06 369.189 221.06 369.189 221.121 370.402C223.343 395.231 235.462 422.411 252.616 440.529C254.048 442.051 255.437 443.605 256.82 445.172C265.192 454.564 273.81 462.29 284.625 468.812C285.527 469.371 286.43 469.93 287.359 470.506C292.128 473.422 296.811 475.889 302 478C303.29 478.668 304.576 479.342 305.859 480.023C310.18 482.209 314.566 483.456 319.25 484.625C320.019 484.829 320.789 485.032 321.582 485.242C333.21 488.231 344.306 489.321 356.312 489.25C357.611 489.258 358.91 489.265 360.248 489.273C378.038 489.238 393.686 486.11 410 479C411.262 478.488 412.525 477.979 413.789 477.473C441.044 466.354 460.38 446.575 472.226 419.676C474.798 412.895 476.837 405.922 479 399C438.08 399 397.16 399 355 399C355 368.97 355 338.94 355 308C426.61 308 498.22 308 572 308C573.45 313.802 574.513 318.904 575.105 324.754C575.189 325.574 575.273 326.394 575.36 327.239C576.234 336.469 576.351 345.673 576.312 354.937C576.311 355.821 576.309 356.704 576.308 357.615C576.274 368.985 575.943 380.247 574.75 391.562C574.641 392.604 574.532 393.647 574.419 394.72C572.674 408.94 568.407 422.645 563.875 436.187C563.637 436.901 563.398 437.615 563.153 438.351C552.595 469.762 534.952 501.521 510 524C509.34 524 508.68 524 508 524C508 524.66 508 525.32 508 526C490.452 542.89 468.377 555.602 445.79 564.302C443.444 565.216 441.132 566.207 438.812 567.187C433.728 569.223 428.481 570.639 423.199 572.07C420.074 572.921 420.074 572.921 417.441 574.027C375.886 590.583 313.275 583.419 273 567C270.113 565.551 267.314 564.011 264.519 562.391C262.166 561.092 259.891 560.118 257.375 559.187C234.082 550.226 213.857 534.107 196 517C195.416 516.448 194.832 515.897 194.23 515.329C179.401 501.272 167.859 485.595 157.303 468.144C156.164 466.27 155 464.417 153.824 462.566C143.488 445.643 137.272 426.105 131.654 407.19C131.099 405.333 130.509 403.487 129.91 401.644C128.606 396.421 128.047 391.156 127.437 385.812C127.188 383.673 126.937 381.533 126.684 379.394C126.576 378.454 126.468 377.514 126.357 376.546C126.071 374.091 126.071 374.091 125.47 372.124C124.773 368.973 124.817 365.826 124.797 362.613C124.79 361.887 124.783 361.161 124.776 360.413C124.758 358.046 124.752 355.679 124.75 353.312C124.749 352.507 124.747 351.702 124.746 350.872C124.75 340.474 125.053 330.21 126.312 319.875C126.43 318.907 126.548 317.94 126.669 316.943C127.415 311.543 128.618 306.474 130.311 301.293C131.037 298.876 131.509 296.486 131.937 294C132.751 289.712 134.116 285.986 135.824 281.98C136.719 279.711 137.492 277.501 138.207 275.176C148.022 243.356 165.905 215.764 189 192C189.58 191.394 190.16 190.788 190.758 190.164C198.763 181.818 206.974 174.14 216.284 167.267C217.986 166.01 219.67 164.733 221.355 163.453C241.331 148.511 277.314 125.985 303 128C303 127.34 303 126.68 303 126C317.505 123.386 331.575 121.325 346.309 120.906Z" fill="#35A852"/>
<path d="M346.309 120.906C403.675 119.411 459.875 136.131 503.062 175.312C503.796 176.01 504.529 176.707 505.285 177.426C506.927 179.078 506.927 179.078 509 180C507.352 184.196 504.269 187.033 501.145 190.161C500.546 190.768 499.948 191.375 499.331 192C497.354 194.002 495.369 195.995 493.383 197.988C492.005 199.375 490.627 200.762 489.25 202.148C486.363 205.051 483.473 207.95 480.579 210.846C476.866 214.565 473.169 218.299 469.476 222.038C466.638 224.906 463.789 227.762 460.937 230.615C459.568 231.988 458.204 233.365 456.844 234.746C454.945 236.671 453.032 238.58 451.114 240.485C450.27 241.351 450.27 241.351 449.41 242.234C447.821 243.793 447.821 243.793 445 246C441.341 245.904 439.714 244.011 437.187 241.5C431.101 235.914 424.176 232.006 417 228C415.998 227.43 414.997 226.86 413.965 226.273C406.261 222.141 398.263 219.81 389.873 217.533C388.182 217.052 386.513 216.495 384.848 215.93C359.665 207.708 331.205 213.104 307.19 222.177C305.379 222.857 303.556 223.505 301.73 224.144C286.103 229.98 272.658 240.29 261 252C260.353 252.599 259.706 253.199 259.039 253.816C232.672 278.512 220.756 315.596 219.557 350.832C219.517 352.084 219.478 353.335 219.437 354.625C219.373 356.56 219.373 356.56 219.307 358.535C219.201 361.69 219.099 364.845 219 368C219.66 368 220.32 368 221 368C221.109 368.99 221.219 369.98 221.332 371C222.164 378.067 223.302 384.377 226 391C226.562 393.75 226.562 393.75 226 396C224.589 396.978 223.172 397.949 221.723 398.871C218.82 400.773 216.148 402.962 213.437 405.125C212.197 406.107 210.956 407.089 209.715 408.07C209.093 408.562 208.472 409.053 207.831 409.559C205.072 411.73 202.287 413.866 199.5 416C194.502 419.831 189.54 423.707 184.593 427.604C177.485 433.2 170.345 438.753 163.193 444.291C161.642 445.5 160.099 446.718 158.561 447.943C157.763 448.576 156.966 449.208 156.144 449.859C155.422 450.436 154.7 451.014 153.956 451.608C152 453 152 453 149 454C143.129 440.758 138.238 427.356 133.832 413.559C133.164 411.504 132.447 409.464 131.715 407.43C128.214 397.445 127.428 386.918 126.325 376.451C126.069 374.077 126.069 374.077 125.474 372.138C124.774 368.981 124.817 365.831 124.797 362.613C124.79 361.887 124.783 361.161 124.776 360.413C124.758 358.046 124.752 355.679 124.75 353.312C124.749 352.507 124.747 351.702 124.746 350.872C124.75 340.474 125.053 330.21 126.312 319.875C126.43 318.907 126.548 317.94 126.669 316.943C127.415 311.543 128.618 306.474 130.311 301.293C131.037 298.876 131.509 296.486 131.937 294C132.751 289.712 134.116 285.986 135.824 281.98C136.719 279.711 137.492 277.501 138.207 275.176C148.022 243.356 165.905 215.764 189 192C189.58 191.394 190.16 190.788 190.758 190.164C198.763 181.818 206.974 174.14 216.284 167.267C217.986 166.01 219.67 164.733 221.355 163.453C241.331 148.511 277.314 125.985 303 128C303 127.34 303 126.68 303 126C317.505 123.386 331.575 121.325 346.309 120.906Z" fill="#EA4436"/>
<path d="M355 308C426.61 308 498.22 308 572 308C573.45 313.802 574.513 318.904 575.105 324.754C575.189 325.574 575.273 326.394 575.36 327.239C576.234 336.469 576.352 345.673 576.312 354.938C576.311 355.821 576.31 356.704 576.308 357.615C576.274 368.985 575.944 380.247 574.75 391.562C574.586 393.126 574.586 393.126 574.419 394.72C572.674 408.94 568.407 422.645 563.875 436.188C563.637 436.901 563.398 437.615 563.153 438.351C552.595 469.762 534.952 501.521 510 524C509.34 524 508.68 524 508 524C507.67 524.66 507.34 525.32 507 526C506.319 525.417 505.639 524.835 504.938 524.234C498.408 518.712 491.724 513.487 484.855 508.394C480.082 504.843 475.472 501.141 470.898 497.336C467.378 494.499 463.758 491.815 460.125 489.125C450.936 482.304 442.015 475.191 434 467C434.557 466.576 435.114 466.152 435.688 465.715C459.322 447.55 470.184 427.21 479 399C438.08 399 397.16 399 355 399C355 368.97 355 338.94 355 308Z" fill="#4385F3"/>
<path d="M149 248C152.723 250.149 156.139 252.526 159.562 255.125C160.626 255.931 161.69 256.737 162.754 257.543C163.293 257.952 163.832 258.361 164.387 258.783C165.926 259.945 167.477 261.092 169.027 262.238C174.061 265.962 178.969 269.768 183.75 273.812C190.301 279.336 197.153 284.418 204.029 289.527C207.103 291.824 210.148 294.158 213.187 296.5C214.694 297.66 214.694 297.66 216.23 298.844C218.057 300.266 219.873 301.703 221.676 303.156C224.059 305.099 224.059 305.099 227 307C226.734 307.906 226.469 308.812 226.195 309.746C221.791 324.936 219.935 338.789 219.437 354.625C219.373 356.561 219.373 356.561 219.307 358.535C219.201 361.69 219.099 364.845 219 368C219.66 368 220.32 368 221 368C221.164 369.485 221.164 369.485 221.332 371C222.164 378.067 223.302 384.378 226 391C226.562 393.75 226.562 393.75 226 396C224.589 396.979 223.172 397.95 221.723 398.871C218.82 400.773 216.148 402.963 213.437 405.125C212.197 406.107 210.956 407.089 209.715 408.07C209.093 408.562 208.472 409.053 207.831 409.56C205.072 411.73 202.287 413.866 199.5 416C194.502 419.831 189.54 423.707 184.593 427.604C177.485 433.2 170.345 438.753 163.193 444.291C161.642 445.5 160.099 446.718 158.561 447.943C157.763 448.576 156.966 449.208 156.144 449.859C155.422 450.437 154.7 451.014 153.956 451.608C152 453 152 453 149 454C143.129 440.758 138.238 427.356 133.832 413.56C133.164 411.504 132.447 409.464 131.715 407.43C128.214 397.446 127.428 386.918 126.325 376.451C126.069 374.077 126.069 374.077 125.474 372.138C124.774 368.981 124.817 365.831 124.797 362.613C124.79 361.887 124.783 361.161 124.776 360.413C124.758 358.046 124.752 355.679 124.75 353.312C124.749 352.507 124.747 351.702 124.746 350.872C124.75 340.474 125.053 330.21 126.312 319.875C126.43 318.907 126.548 317.94 126.669 316.943C127.415 311.543 128.618 306.475 130.311 301.293C131.037 298.876 131.509 296.486 131.937 294C132.748 289.727 134.107 286.012 135.805 282.02C137.344 278.13 138.595 274.168 139.875 270.188C142.373 262.485 145.384 255.257 149 248Z" fill="#F9BB06"/>
</g>
<defs>
<clipPath id="clip0_5_9592">
<rect width="700" height="700" fill="white"/>
</clipPath>
</defs>
</svg>
